<?xml version="1.0" encoding="utf-8"?>
<!-- Svg Vector Icons : http://www.onlinewebfonts.com/icon -->
<!DOCTYPE svg PUBLIC "-//W3C//DTD SVG 1.1//EN" "http://www.w3.org/Graphics/SVG/1.1/DTD/svg11.dtd">
<svg version="1.1" xmlns="http://www.w3.org/2000/svg" xmlns:xlink="http://www.w3.org/1999/xlink" x="0px" y="0px" viewBox="0 0 1000 1000" enable-background="new 0 0 1000 1000" xml:space="preserve">
<metadata> Svg Vector Icons : http://www.onlinewebfonts.com/icon </metadata>
<g><g><path d="M405.3,10C195.7,10,25.8,179.9,25.8,389.5C25.8,599.1,195.7,769,405.3,769c80.6,0,155.3-25.1,216.8-68l287,287c2.6,2.6,6.8,2.6,9.2,0.2l54.1-54.1c2.5-2.5,2.3-6.8-0.2-9.2L689,641.6c59.7-67,95.9-155.3,95.9-252.1C784.8,179.9,614.9,10,405.3,10z M405.3,724.4c-184.9,0-334.9-149.9-334.9-334.9c0-184.9,149.9-334.9,334.9-334.9c184.9,0,334.9,149.9,334.9,334.9C740.2,574.5,590.3,724.4,405.3,724.4z"/></g><g></g><g></g><g></g><g></g><g></g><g></g><g></g><g></g><g></g><g></g><g></g><g></g><g></g><g></g><g></g></g>
</svg>